<?xml version="1.0" encoding="UTF-8" standalone="no"?>
<!-- Created with Inkscape (http://www.inkscape.org/) -->

<svg
   xmlns:dc="http://purl.org/dc/elements/1.1/"
   xmlns:cc="http://creativecommons.org/ns#"
   xmlns:rdf="http://www.w3.org/1999/02/22-rdf-syntax-ns#"
   xmlns:svg="http://www.w3.org/2000/svg"
   xmlns="http://www.w3.org/2000/svg"
   xmlns:xlink="http://www.w3.org/1999/xlink"
   xmlns:sodipodi="http://sodipodi.sourceforge.net/DTD/sodipodi-0.dtd"
   xmlns:inkscape="http://www.inkscape.org/namespaces/inkscape"
   version="1.0"
   width="30"
   height="30"
   id="svg4292"
   inkscape:version="0.48.4 r9939"
   sodipodi:docname="stat.svg">
  <metadata
     id="metadata4130">
    <rdf:RDF>
      <cc:Work
         rdf:about="">
        <dc:format>image/svg+xml</dc:format>
        <dc:type
           rdf:resource="http://purl.org/dc/dcmitype/StillImage" />
      </cc:Work>
    </rdf:RDF>
  </metadata>
  <sodipodi:namedview
     pagecolor="#ffffff"
     bordercolor="#666666"
     borderopacity="1"
     objecttolerance="10"
     gridtolerance="10"
     guidetolerance="10"
     inkscape:pageopacity="0"
     inkscape:pageshadow="2"
     inkscape:window-width="640"
     inkscape:window-height="480"
     id="namedview4128"
     showgrid="false"
     inkscape:zoom="4.9166667"
     inkscape:cx="24"
     inkscape:cy="24"
     inkscape:window-x="0"
     inkscape:window-y="24"
     inkscape:window-maximized="0"
     inkscape:current-layer="svg4292" />
  <defs
     id="defs4294">
    <linearGradient
       id="linearGradient5447">
      <stop
         style="stop-color:#ffffff;stop-opacity:1"
         offset="0"
         id="stop5449" />
      <stop
         style="stop-color:#ffffff;stop-opacity:0"
         offset="1"
         id="stop5451" />
    </linearGradient>
    <linearGradient
       id="linearGradient5421">
      <stop
         style="stop-color:#cc0000;stop-opacity:1"
         offset="0"
         id="stop5423" />
      <stop
         style="stop-color:#cc0000;stop-opacity:0"
         offset="1"
         id="stop5425" />
    </linearGradient>
    <linearGradient
       id="linearGradient5413">
      <stop
         style="stop-color:#204a87;stop-opacity:1"
         offset="0"
         id="stop5415" />
      <stop
         style="stop-color:#204a87;stop-opacity:0"
         offset="1"
         id="stop5417" />
    </linearGradient>
    <linearGradient
       id="linearGradient5401">
      <stop
         style="stop-color:#ffffff;stop-opacity:1"
         offset="0"
         id="stop5403" />
      <stop
         style="stop-color:#ffffff;stop-opacity:0"
         offset="1"
         id="stop5405" />
    </linearGradient>
    <linearGradient
       id="linearGradient5391">
      <stop
         style="stop-color:#d3d7cf;stop-opacity:1"
         offset="0"
         id="stop5393" />
      <stop
         style="stop-color:#e0e3dd;stop-opacity:1"
         offset="1"
         id="stop5395" />
    </linearGradient>
    <radialGradient
       cx="605.71429"
       cy="486.64789"
       r="117.14286"
       fx="605.71429"
       fy="486.64789"
       id="radialGradient5031"
       xlink:href="#linearGradient5060"
       gradientUnits="userSpaceOnUse"
       gradientTransform="matrix(-2.774389,0,0,1.969706,112.7623,-872.8854)" />
    <linearGradient
       id="linearGradient5060">
      <stop
         style="stop-color:#000000;stop-opacity:1"
         offset="0"
         id="stop5062" />
      <stop
         style="stop-color:#000000;stop-opacity:0"
         offset="1"
         id="stop5064" />
    </linearGradient>
    <radialGradient
       cx="605.71429"
       cy="486.64789"
       r="117.14286"
       fx="605.71429"
       fy="486.64789"
       id="radialGradient5029"
       xlink:href="#linearGradient5060"
       gradientUnits="userSpaceOnUse"
       gradientTransform="matrix(2.774389,0,0,1.969706,-1891.633,-872.8854)" />
    <linearGradient
       id="linearGradient5048">
      <stop
         style="stop-color:#000000;stop-opacity:0"
         offset="0"
         id="stop5050" />
      <stop
         style="stop-color:#000000;stop-opacity:1"
         offset="0.5"
         id="stop5056" />
      <stop
         style="stop-color:#000000;stop-opacity:0"
         offset="1"
         id="stop5052" />
    </linearGradient>
    <linearGradient
       x1="302.85715"
       y1="366.64789"
       x2="302.85715"
       y2="609.50507"
       id="linearGradient5027"
       xlink:href="#linearGradient5048"
       gradientUnits="userSpaceOnUse"
       gradientTransform="matrix(2.774389,0,0,1.969706,-1892.179,-872.8854)" />
    <linearGradient
       x1="27"
       y1="39.999996"
       x2="27.249989"
       y2="12.374994"
       id="linearGradient5397"
       xlink:href="#linearGradient5391"
       gradientUnits="userSpaceOnUse"
       gradientTransform="translate(0,-2)" />
    <linearGradient
       x1="3.9999998"
       y1="24.99999"
       x2="8.1249847"
       y2="62.874992"
       id="linearGradient5407"
       xlink:href="#linearGradient5401"
       gradientUnits="userSpaceOnUse"
       gradientTransform="translate(0,-2)" />
    <linearGradient
       x1="37.330212"
       y1="24.135145"
       x2="41.688969"
       y2="24.135145"
       id="linearGradient5419"
       xlink:href="#linearGradient5413"
       gradientUnits="userSpaceOnUse"
       gradientTransform="translate(0,-2)" />
    <linearGradient
       x1="37.330212"
       y1="33.946251"
       x2="40.628307"
       y2="33.946251"
       id="linearGradient5427"
       xlink:href="#linearGradient5421"
       gradientUnits="userSpaceOnUse"
       gradientTransform="translate(0,-2)" />
    <radialGradient
       cx="21.920311"
       cy="24.842253"
       r="14.318913"
       fx="21.920311"
       fy="24.842253"
       id="radialGradient5453"
       xlink:href="#linearGradient5447"
       gradientUnits="userSpaceOnUse" />
  </defs>
  <g
     id="layer1"
     transform="matrix(0.60272325,0,0,0.60272325,0.74385756,0.73154435)">
    <g
       transform="matrix(0.02294503,0,0,0.01760266,44.55078,39.84629)"
       style="display:inline"
       id="g5022">
      <rect
         width="1339.6335"
         height="478.35718"
         x="-1559.2523"
         y="-150.69685"
         style="opacity:0.40206185;color:#000000;fill:url(#linearGradient5027);fill-opacity:1;fill-rule:nonzero;stroke:none;stroke-width:1;marker:none;visibility:visible;display:inline;overflow:visible"
         id="rect4173" />
      <path
         d="m -219.61876,-150.68038 c 0,0 0,478.33079 0,478.33079 142.874166,0.90045 345.40022,-107.16966 345.40014,-239.196175 0,-132.026537 -159.436816,-239.134595 -345.40014,-239.134615 z"
         style="opacity:0.40206185;color:#000000;fill:url(#radialGradient5029);fill-opacity:1;fill-rule:nonzero;stroke:none;stroke-width:1;marker:none;visibility:visible;display:inline;overflow:visible"
         id="path5058"
         inkscape:connector-curvature="0" />
      <path
         d="m -1559.2523,-150.68038 c 0,0 0,478.33079 0,478.33079 -142.8742,0.90045 -345.4002,-107.16966 -345.4002,-239.196175 0,-132.026537 159.4368,-239.134595 345.4002,-239.134615 z"
         style="opacity:0.40206185;color:#000000;fill:url(#radialGradient5031);fill-opacity:1;fill-rule:nonzero;stroke:none;stroke-width:1;marker:none;visibility:visible;display:inline;overflow:visible"
         id="path5018"
         inkscape:connector-curvature="0" />
    </g>
    <rect
       width="40.999989"
       height="38.999989"
       rx="1.9455439"
       ry="1.8180572"
       x="3.499999"
       y="3.5000005"
       style="color:#000000;fill:url(#linearGradient5397);fill-opacity:1;fill-rule:nonzero;stroke:#888a85;stroke-width:0.99999976;stroke-linecap:round;stroke-linejoin:round;stroke-miterlimit:4;stroke-opacity:1;stroke-dasharray:none;stroke-dashoffset:0;marker:none;visibility:visible;display:inline;overflow:visible"
       id="rect4297" />
    <path
       d="m 36.239224,24.842253 a 14.318913,14.318913 0 1 1 -28.6378265,0 14.318913,14.318913 0 1 1 28.6378265,0 z"
       transform="matrix(1.234568,0,0,1.234568,-3.727587,-6.766535)"
       style="opacity:0.57714281;color:#000000;fill:url(#radialGradient5453);fill-opacity:1;fill-rule:nonzero;stroke:none;stroke-width:1;marker:none;visibility:visible;display:inline;overflow:visible"
       id="path5445"
       inkscape:connector-curvature="0" />
    <rect
       width="38.999985"
       height="36.999985"
       rx="0.97482324"
       ry="0.97482324"
       x="4.4999995"
       y="4.4999976"
       style="opacity:0.6;color:#000000;fill:none;stroke:url(#linearGradient5407);stroke-width:0.99999958;stroke-linecap:round;stroke-linejoin:round;stroke-miterlimit:4;stroke-opacity:1;stroke-dasharray:none;stroke-dashoffset:0;marker:none;visibility:visible;display:inline;overflow:visible"
       id="rect5399" />
    <path
       d="M 6.7175144,37.337942 13.966335,25.607375 20,31 27.961048,18.838889 36.094616,23.217253 41.18897,6.9323501"
       style="fill:none;stroke:url(#linearGradient5419);stroke-width:1px;stroke-linecap:butt;stroke-linejoin:miter;stroke-opacity:1"
       id="path5409"
       inkscape:connector-curvature="0" />
    <path
       d="m 6.7175144,37.337942 7.2362576,-4.523776 5.921228,3.333805 7.948485,-9.291631 8.062184,3.056981 5.303301,-3.358758"
       style="fill:none;stroke:url(#linearGradient5427);stroke-width:1px;stroke-linecap:butt;stroke-linejoin:miter;stroke-opacity:1"
       id="path5411"
       inkscape:connector-curvature="0" />
    <path
       d="m 15.375,27.25 a 1.625,1.625 0 1 1 -3.25,0 1.625,1.625 0 1 1 3.25,0 z"
       transform="matrix(1.211539,0,0,1.230769,-2.68991,-7.538455)"
       style="color:#000000;fill:#204a87;fill-opacity:1;fill-rule:nonzero;stroke:none;stroke-width:1;marker:none;visibility:visible;display:inline;overflow:visible"
       id="path5429"
       inkscape:connector-curvature="0" />
    <path
       d="m 15.375,27.25 a 1.625,1.625 0 1 1 -3.25,0 1.625,1.625 0 1 1 3.25,0 z"
       transform="matrix(1.211539,0,0,1.230769,3.31009,-2.538455)"
       style="color:#000000;fill:#204a87;fill-opacity:1;fill-rule:nonzero;stroke:none;stroke-width:1;marker:none;visibility:visible;display:inline;overflow:visible"
       id="path5431"
       inkscape:connector-curvature="0" />
    <path
       d="m 15.375,27.25 a 1.625,1.625 0 1 1 -3.25,0 1.625,1.625 0 1 1 3.25,0 z"
       transform="matrix(1.211539,0,0,1.230769,11.37259,-14.53846)"
       style="color:#000000;fill:#204a87;fill-opacity:1;fill-rule:nonzero;stroke:none;stroke-width:1;marker:none;visibility:visible;display:inline;overflow:visible"
       id="path5433"
       inkscape:connector-curvature="0" />
    <path
       d="m 15.375,27.25 a 1.625,1.625 0 1 1 -3.25,0 1.625,1.625 0 1 1 3.25,0 z"
       transform="matrix(1.211539,0,0,1.230769,19.31009,-10.53845)"
       style="color:#000000;fill:#204a87;fill-opacity:1;fill-rule:nonzero;stroke:none;stroke-width:1;marker:none;visibility:visible;display:inline;overflow:visible"
       id="path5435"
       inkscape:connector-curvature="0" />
    <path
       d="m 15.375,27.25 a 1.625,1.625 0 1 1 -3.25,0 1.625,1.625 0 1 1 3.25,0 z"
       transform="matrix(1.211539,0,0,1.230769,-2.68991,-0.538455)"
       style="color:#000000;fill:#cc0000;fill-opacity:1;fill-rule:nonzero;stroke:none;stroke-width:1;marker:none;visibility:visible;display:inline;overflow:visible"
       id="path5437"
       inkscape:connector-curvature="0" />
    <path
       d="m 15.375,27.25 a 1.625,1.625 0 1 1 -3.25,0 1.625,1.625 0 1 1 3.25,0 z"
       transform="matrix(1.211539,0,0,1.230769,3.31009,2.461545)"
       style="color:#000000;fill:#cc0000;fill-opacity:1;fill-rule:nonzero;stroke:none;stroke-width:1;marker:none;visibility:visible;display:inline;overflow:visible"
       id="path5439"
       inkscape:connector-curvature="0" />
    <path
       d="m 15.375,27.25 a 1.625,1.625 0 1 1 -3.25,0 1.625,1.625 0 1 1 3.25,0 z"
       transform="matrix(1.211539,0,0,1.230769,11.31009,-6.538455)"
       style="color:#000000;fill:#cc0000;fill-opacity:1;fill-rule:nonzero;stroke:none;stroke-width:1;marker:none;visibility:visible;display:inline;overflow:visible"
       id="path5441"
       inkscape:connector-curvature="0" />
    <path
       d="m 15.375,27.25 a 1.625,1.625 0 1 1 -3.25,0 1.625,1.625 0 1 1 3.25,0 z"
       transform="matrix(1.211539,0,0,1.230769,19.31009,-3.538455)"
       style="color:#000000;fill:#cc0000;fill-opacity:1;fill-rule:nonzero;stroke:none;stroke-width:1;marker:none;visibility:visible;display:inline;overflow:visible"
       id="path5443"
       inkscape:connector-curvature="0" />
  </g>
</svg>
